<?xml version="1.0" standalone="no"?><!DOCTYPE svg PUBLIC "-//W3C//DTD SVG 1.1//EN" "http://www.w3.org/Graphics/SVG/1.1/DTD/svg11.dtd"><svg t="1673432854615" class="icon" viewBox="0 0 1024 1024" version="1.1" xmlns="http://www.w3.org/2000/svg" p-id="2697" xmlns:xlink="http://www.w3.org/1999/xlink" width="200" height="200"><path d="M245.323116 913.111046a110.883142 110.883142 0 1 1-110.883141-110.883142A110.883142 110.883142 0 0 1 245.323116 913.111046zM155.901228 1.007785A118.484002 118.484002 0 0 0 61.114026 30.517008 115.801345 115.801345 0 0 0 21.768395 117.25624a117.589783 117.589783 0 0 0 104.1765 114.907126c327.731221 41.581178 603.597746 337.567629 641.15494 688.548541a114.460017 114.460017 0 0 0 114.907126 102.835171 118.036893 118.036893 0 0 0 89.421889-38.898521 113.118689 113.118689 0 0 0 28.615004-89.421889C949.520487 440.963475 586.46762 56.449355 155.901228 1.007785z m7.60086 381.831463A110.883142 110.883142 0 0 0 66.479339 403.406282a117.142674 117.142674 0 0 0-44.710944 92.551655 114.460017 114.460017 0 0 0 89.421889 112.22447c134.132833 32.19188 250.381287 163.642056 279.89051 318.789032a116.248455 116.248455 0 0 0 112.22447 93.445873 116.695564 116.695564 0 0 0 89.421888-42.028287 112.671579 112.671579 0 0 0 24.59102-93.445874C571.713009 643.056943 383.927043 436.492381 161.266541 383.733467z" fill="#FFAD08" p-id="2698"></path><path d="M62.008245 997.614731l155.146976-155.146977A109.541813 109.541813 0 0 1 245.323116 913.111046a110.883142 110.883142 0 0 1-110.883141 110.883142 109.541813 109.541813 0 0 1-72.43173-26.379457z m513.728749-513.28164a804.796995 804.796995 0 0 1 191.362841 436.378816 114.460017 114.460017 0 0 0 114.907126 102.835171 118.036893 118.036893 0 0 0 89.421889-38.898521 113.118689 113.118689 0 0 0 28.615004-89.421889A1035.058358 1035.058358 0 0 0 737.143502 320.691036z m-185.997528 444.426785a116.248455 116.248455 0 0 0 112.22447 93.445874 116.695564 116.695564 0 0 0 89.421888-42.028288 112.671579 112.671579 0 0 0 24.591019-93.445873 670.664163 670.664163 0 0 0-143.52213-301.351764l-162.747837 164.983384a439.061472 439.061472 0 0 1 80.03259 178.396667z" fill="#D68650" p-id="2699"></path></svg>